<svg width="64" height="64" viewBox="0 0 64 64" fill="none" xmlns="http://www.w3.org/2000/svg">
<rect width="64" height="64" fill="#111111"/>
<path d="M6.10043 31.7293V29.1869C7.55925 29.1869 8.57114 28.896 9.13611 28.3141C9.70109 27.7323 9.98357 26.7921 9.98357 25.4935V22.6981C9.98357 21.1381 10.1986 19.8901 10.6287 18.9541C11.0671 18.0097 11.6743 17.2972 12.4501 16.8165C13.2343 16.3359 14.1618 16.0154 15.2328 15.8552C16.3037 15.695 17.4758 15.6149 18.7491 15.6149V19.6372C17.7541 19.6372 16.9951 19.7679 16.4723 20.0293C15.958 20.2823 15.608 20.6786 15.4225 21.2183C15.237 21.7495 15.1442 22.4241 15.1442 23.242V26.9354C15.1442 27.5763 15.0262 28.1877 14.7901 28.7695C14.554 29.3429 14.1155 29.8531 13.4746 30.3C12.8337 30.7385 11.9188 31.0884 10.7298 31.3498C9.54087 31.6028 7.99773 31.7293 6.10043 31.7293ZM18.7491 47.6287C17.4758 47.6287 16.3037 47.5485 15.2328 47.3883C14.1618 47.2281 13.2343 46.9077 12.4501 46.427C11.6743 45.9464 11.0671 45.2338 10.6287 44.2894C10.1986 43.3534 9.98357 42.1054 9.98357 40.5454V37.7374C9.98357 36.4388 9.70109 35.4986 9.13611 34.9168C8.57114 34.3349 7.55925 34.044 6.10043 34.044V31.5016C7.99773 31.5016 9.54087 31.6323 10.7298 31.8937C11.9188 32.1467 12.8337 32.4966 13.4746 32.9436C14.1155 33.382 14.554 33.8922 14.7901 34.474C15.0262 35.0475 15.1442 35.6588 15.1442 36.3081V40.0015C15.1442 40.811 15.237 41.4814 15.4225 42.0126C15.608 42.5523 15.958 42.9486 16.4723 43.2016C16.9951 43.463 17.7541 43.5937 18.7491 43.5937V47.6287ZM6.10043 34.044V29.1869H10.6413V34.044H6.10043ZM23.0933 42.3289C22.2585 42.3289 21.5417 42.0337 20.943 41.4435C20.3527 40.8448 20.0576 40.128 20.0576 39.2932C20.0576 38.4668 20.3527 37.7585 20.943 37.1682C21.5417 36.5779 22.2585 36.2828 23.0933 36.2828C23.9028 36.2828 24.6111 36.5779 25.2183 37.1682C25.8254 37.7585 26.129 38.4668 26.129 39.2932C26.129 39.8497 25.9856 40.3599 25.6989 40.8237C25.4206 41.279 25.0538 41.6458 24.5985 41.9241C24.1431 42.1939 23.6414 42.3289 23.0933 42.3289ZM31.9214 42.3289C31.0866 42.3289 30.3698 42.0337 29.7711 41.4435C29.1809 40.8448 28.8857 40.128 28.8857 39.2932C28.8857 38.4668 29.1809 37.7585 29.7711 37.1682C30.3698 36.5779 31.0866 36.2828 31.9214 36.2828C32.7309 36.2828 33.4392 36.5779 34.0464 37.1682C34.6535 37.7585 34.9571 38.4668 34.9571 39.2932C34.9571 39.8497 34.8137 40.3599 34.527 40.8237C34.2488 41.279 33.8819 41.6458 33.4266 41.9241C32.9712 42.1939 32.4695 42.3289 31.9214 42.3289ZM40.7495 42.3289C39.9147 42.3289 39.198 42.0337 38.5993 41.4435C38.009 40.8448 37.7139 40.128 37.7139 39.2932C37.7139 38.4668 38.009 37.7585 38.5993 37.1682C39.198 36.5779 39.9147 36.2828 40.7495 36.2828C41.5591 36.2828 42.2674 36.5779 42.8745 37.1682C43.4817 37.7585 43.7852 38.4668 43.7852 39.2932C43.7852 39.8497 43.6419 40.3599 43.3552 40.8237C43.0769 41.279 42.7101 41.6458 42.2547 41.9241C41.7994 42.1939 41.2976 42.3289 40.7495 42.3289ZM57.7487 31.5016V34.044C56.2983 34.044 55.2864 34.3349 54.713 34.9168C54.1481 35.4986 53.8656 36.4388 53.8656 37.7374V40.5454C53.8656 42.1054 53.6463 43.3534 53.2078 44.2894C52.7778 45.2338 52.1706 45.9464 51.3864 46.427C50.6106 46.9077 49.6873 47.2281 48.6164 47.3883C47.5539 47.5485 46.3818 47.6287 45.1 47.6287V43.5937C46.0951 43.5937 46.8498 43.463 47.3642 43.2016C47.887 42.9486 48.2411 42.5523 48.4266 42.0126C48.6122 41.4814 48.7049 40.811 48.7049 40.0015V36.3081C48.7049 35.6588 48.823 35.0475 49.0591 34.474C49.2952 33.8922 49.7337 33.382 50.3745 32.9436C51.0154 32.4966 51.9303 32.1467 53.1193 31.8937C54.3083 31.6323 55.8514 31.5016 57.7487 31.5016ZM45.1 15.6149C46.3818 15.6149 47.5539 15.695 48.6164 15.8552C49.6873 16.0154 50.6106 16.3359 51.3864 16.8165C52.1706 17.2972 52.7778 18.0097 53.2078 18.9541C53.6463 19.8901 53.8656 21.1381 53.8656 22.6981V25.4935C53.8656 26.7921 54.1481 27.7323 54.713 28.3141C55.2864 28.896 56.2983 29.1869 57.7487 29.1869V31.7293C55.8514 31.7293 54.3083 31.6028 53.1193 31.3498C51.9303 31.0884 51.0154 30.7385 50.3745 30.3C49.7337 29.8531 49.2952 29.3429 49.0591 28.7695C48.823 28.1877 48.7049 27.5763 48.7049 26.9354V23.242C48.7049 22.4241 48.6122 21.7495 48.4266 21.2183C48.2411 20.6786 47.887 20.2823 47.3642 20.0293C46.8498 19.7679 46.0951 19.6372 45.1 19.6372V15.6149ZM57.7487 29.1869V34.044H53.2078V29.1869H57.7487Z" fill="white"/>
</svg>
